<?xml version="1.0" standalone="no"?>
<!DOCTYPE svg PUBLIC "-//W3C//DTD SVG 20010904//EN"
 "http://www.w3.org/TR/2001/REC-SVG-20010904/DTD/svg10.dtd">
<svg version="1.0" xmlns="http://www.w3.org/2000/svg"
 width="200.000000pt" height="200.000000pt" viewBox="0 0 200.000000 200.000000"
 preserveAspectRatio="xMidYMid meet">

<g transform="translate(0.000000,200.000000) scale(0.100000,-0.100000)"
fill="#000000" stroke="none">
<path d="M310 1504 c0 -103 28 -645 36 -691 l5 -33 138 0 138 0 68 173 c37 94
108 276 156 402 l88 230 -106 3 c-58 1 -107 1 -110 -1 -2 -2 -44 -127 -94
-278 -50 -151 -95 -283 -100 -294 -6 -12 -7 31 -3 112 3 73 3 206 -1 297 l-7
166 -104 0 -104 0 0 -86z"/>
<path d="M1016 1582 c-5 -9 -316 -793 -316 -799 0 -2 42 -2 92 -1 l93 3 147
375 c81 206 151 387 157 403 l10 27 -89 0 c-49 0 -91 -3 -94 -8z"/>
<path d="M1274 1571 c3 -5 2 -11 -3 -13 -15 -5 -52 -106 -41 -113 5 -3 13 3
19 12 9 16 10 16 8 -4 -1 -14 -7 -20 -18 -18 -10 2 -22 -2 -27 -8 -18 -23 -72
-179 -65 -189 3 -7 1 -8 -5 -4 -16 10 -15 -7 1 -23 10 -10 9 -11 -5 -6 -12 5
-18 -2 -24 -27 -5 -18 -9 -39 -9 -46 0 -7 -6 -17 -14 -21 -8 -5 -10 -14 -6
-21 6 -9 4 -11 -5 -5 -9 6 -10 2 -5 -16 4 -13 4 -21 -1 -16 -6 6 -73 -136 -78
-168 -1 -5 -5 -16 -9 -22 -5 -7 -5 -13 0 -13 4 0 3 -4 -3 -8 -6 -4 -14 -17
-18 -29 -6 -17 -3 -23 9 -23 9 0 14 4 10 9 -3 5 -1 13 5 16 6 4 9 1 8 -6 -2
-6 3 -14 11 -17 10 -3 11 0 5 9 -6 11 -5 12 7 3 8 -6 37 -11 64 -10 l50 1 34
90 c18 50 34 95 35 100 1 6 8 20 14 33 7 12 10 22 7 22 -3 0 2 11 11 25 8 13
13 29 9 35 -3 5 -2 10 2 10 12 0 34 61 26 73 -3 6 -1 7 5 3 11 -7 16 7 15 41
-1 7 4 10 10 6 6 -4 8 0 4 10 -4 10 -10 25 -13 35 -5 14 -4 14 6 -2 11 -16 17
-7 52 80 22 55 50 125 64 157 29 70 29 75 7 50 -10 -10 -15 -14 -10 -9 14 19
6 22 -69 24 -47 2 -74 -1 -70 -7z m45 -275 c-3 -3 -11 5 -18 17 -13 21 -12 21
5 5 10 -10 16 -20 13 -22z m-214 -256 c3 -5 1 -10 -4 -10 -6 0 -11 5 -11 10 0
6 2 10 4 10 3 0 8 -4 11 -10z"/>
<path d="M1318 722 c-16 -2 -28 -6 -28 -10 0 -4 -3 -17 -6 -29 -6 -20 -3 -23
25 -23 20 0 31 -5 31 -14 0 -13 -25 -155 -35 -203 -5 -21 -2 -23 34 -23 l39 0
22 120 22 120 33 0 c29 0 33 4 37 29 l4 30 -75 3 c-42 2 -88 2 -103 0z"/>
<path d="M305 613 c3 -60 8 -127 11 -150 l5 -43 53 0 53 0 51 133 c28 72 54
140 58 150 6 16 2 18 -36 15 l-43 -3 -33 -99 c-19 -54 -36 -102 -40 -105 -3
-3 -3 17 1 46 4 28 4 76 0 107 l-7 56 -39 0 -40 0 6 -107z"/>
<path d="M576 618 c-21 -57 -47 -124 -57 -150 l-19 -48 40 0 c34 0 41 4 46 25
5 21 12 25 45 25 35 0 39 -3 39 -25 0 -23 4 -25 41 -25 41 0 41 0 35 31 -3 17
-6 85 -6 150 l0 119 -63 0 -62 0 -39 -102z m94 -18 c0 -57 -1 -60 -24 -60
l-25 0 21 60 c11 33 22 60 24 60 2 0 4 -27 4 -60z"/>
<path d="M814 604 c-16 -103 -16 -119 -3 -142 21 -39 56 -54 108 -47 49 6 78
26 93 65 7 19 48 220 48 237 0 2 -17 3 -38 3 l-39 0 -18 -102 c-10 -57 -22
-111 -27 -120 -11 -23 -47 -23 -55 -2 -5 15 10 143 24 202 5 20 2 22 -35 22
l-40 0 -18 -116z"/>
<path d="M1120 718 c0 -2 -11 -64 -25 -138 -14 -74 -25 -141 -25 -147 0 -10
23 -13 84 -13 l84 0 4 30 c4 29 4 30 -39 30 -51 0 -51 -2 -24 143 l17 97 -38
0 c-21 0 -38 -1 -38 -2z"/>
<path d="M1561 698 c-64 -161 -101 -261 -101 -268 0 -6 16 -10 35 -10 28 0 38
5 47 25 9 19 19 25 45 25 29 0 33 -3 33 -25 0 -22 4 -25 40 -25 l40 0 0 53 c0
28 -3 96 -7 150 l-6 97 -59 0 c-51 0 -60 -3 -67 -22z m59 -103 c0 -48 -2 -55
-20 -55 -11 0 -20 4 -20 8 0 13 31 102 36 102 2 0 4 -25 4 -55z"/>
</g>
</svg>
